<?xml version="1.0" standalone="no"?>
<!DOCTYPE svg PUBLIC "-//W3C//DTD SVG 20010904//EN"
 "http://www.w3.org/TR/2001/REC-SVG-20010904/DTD/svg10.dtd">
<svg version="1.0" xmlns="http://www.w3.org/2000/svg"
 width="250.000000pt" height="300.000000pt" viewBox="0 0 200.000000 200.000000"
 preserveAspectRatio="xMidYMid meet">
<metadata>
Created by potrace 1.15, written by Peter Selinger 2001-2017
</metadata>
<g transform="translate(0.000000,200.000000) scale(0.100000,-0.100000)"
fill="#000000" stroke="none">
<path d="M905 1870 c-237 -33 -435 -178 -540 -395 -57 -119 -70 -177 -69 -315
0 -134 24 -233 81 -342 45 -86 146 -197 224 -244 58 -36 59 -38 59 -81 0 -50
16 -87 55 -123 l27 -25 246 -3 c233 -2 249 -1 280 18 46 28 72 76 72 131 0 46
1 47 59 83 78 47 179 158 224 244 57 109 81 208 81 342 1 134 -12 193 -65 308
-129 279 -432 445 -734 402z m224 -155 c81 -19 188 -76 250 -131 59 -53 124
-151 153 -230 26 -73 36 -234 18 -318 -29 -139 -144 -297 -263 -361 -84 -45
-87 -49 -87 -127 l0 -68 -200 0 -200 0 0 68 c0 78 -3 82 -87 127 -114 61 -222
204 -258 341 -19 71 -21 212 -4 280 63 253 285 430 544 433 39 0 99 -6 134
-14z"/>
<path d="M800 257 c-53 -27 -49 -106 7 -128 17 -6 100 -9 211 -7 179 3 184 4
203 27 24 30 24 62 0 92 -19 24 -23 24 -208 27 -138 2 -195 -1 -213 -11z"/>
</g>
</svg>
